<?xml version="1.0" encoding="UTF-8"?>
<svg version="1.1" xmlns="http://www.w3.org/2000/svg" width="129" height="40">
<path d="M0 0 C0.66 0.33 1.32 0.66 2 1 C2 1.66 2 2.32 2 3 C3.32 3 4.64 3 6 3 C6 3.99 6 4.98 6 6 C4.68 6 3.36 6 2 6 C2.33 8.31 2.66 10.62 3 13 C3.99 13.33 4.98 13.66 6 14 C5.67 14.99 5.34 15.98 5 17 C0.125 16.125 0.125 16.125 -1 15 C-1.07179964 13.48071962 -1.08392007 11.95832518 -1.0625 10.4375 C-1.05347656 9.61121094 -1.04445313 8.78492188 -1.03515625 7.93359375 C-1.02355469 7.29550781 -1.01195313 6.65742188 -1 6 C-2.98 6.33 -4.96 6.66 -7 7 C-7.33 9.97 -7.66 12.94 -8 16 C-8.99 16 -9.98 16 -11 16 C-11 11.71 -11 7.42 -11 3 C-7.7 3 -4.4 3 -1 3 C-0.67 2.01 -0.34 1.02 0 0 Z " fill="#050404" transform="translate(117,14)"/>
<path d="M0 0 C8.21324503 -0.61986755 8.21324503 -0.61986755 11.0625 1.625 C12.27652573 4.70053186 12.47842171 6.71939399 12 10 C10.3125 12.4375 10.3125 12.4375 8 14 C5.25 13.75 5.25 13.75 3 13 C3 14.65 3 16.3 3 18 C2.01 18 1.02 18 0 18 C-1.48619895 15.02760209 -1.13177009 12.30380422 -1.125 9 C-1.12757812 7.741875 -1.13015625 6.48375 -1.1328125 5.1875 C-1 2 -1 2 0 0 Z M4 3 C2.64381501 4.12534105 2.64381501 4.12534105 2.9375 7.0625 C2.958125 8.031875 2.97875 9.00125 3 10 C5.475 10.495 5.475 10.495 8 11 C9.01540112 6.89776415 9.01540112 6.89776415 8 3 C6.68 3 5.36 3 4 3 Z " fill="#FE360F" transform="translate(28,17)"/>
<path d="M0 0 C0.99 0 1.98 0 3 0 C3.33 1.65 3.66 3.3 4 5 C4.763125 4.175 5.52625 3.35 6.3125 2.5 C9 0 9 0 12 0 C11.42647107 3.87132028 9.51295648 6.08172796 7 9 C9.54604597 12.52381687 9.54604597 12.52381687 13 15 C12.67 15.99 12.34 16.98 12 18 C8.63408134 16.55746343 6.48952921 14.66735273 4 12 C3.34 13.98 2.68 15.96 2 18 C1.34 17.67 0.68 17.34 0 17 C0 11.39 0 5.78 0 0 Z " fill="#0B0605" transform="translate(79,13)"/>
<path d="M0 0 C2.875 -0.125 2.875 -0.125 6 0 C8.52480693 2.52480693 8.55738633 4.13823034 9.125 7.625 C9.29257813 8.62789062 9.46015625 9.63078125 9.6328125 10.6640625 C9.75398438 11.43492188 9.87515625 12.20578125 10 13 C6.44646071 14.1845131 3.72986522 14.26641894 0 14 C-2 12.75 -2 12.75 -3 11 C-2.72963853 8.02602384 -2.14553974 7.14553974 0 5 C1.32 5 2.64 5 4 5 C4 4.34 4 3.68 4 3 C2.02 3.33 0.04 3.66 -2 4 C-1.34 2.68 -0.68 1.36 0 0 Z M1 8 C1 8.99 1 9.98 1 11 C1.99 11 2.98 11 4 11 C4 10.01 4 9.02 4 8 C3.01 8 2.02 8 1 8 Z " fill="#060505" transform="translate(95,17)"/>
<path d="M0 0 C0.99 0.66 1.98 1.32 3 2 C3 2.99 3 3.98 3 5 C0.03 4.67 -2.94 4.34 -6 4 C-7.19988045 9.28199593 -7.19988045 9.28199593 -5 14 C-2.23723823 13.47731534 0.3260876 12.89130413 3 12 C2.6875 13.875 2.6875 13.875 2 16 C-1 18 -1 18 -4.5 17.9375 C-8 17 -8 17 -10 15 C-11.40208694 10.79373918 -11.1970591 7.25529911 -10 3 C-7.16524257 -0.46470352 -4.30542172 -0.45802359 0 0 Z " fill="#FE4720" transform="translate(16,13)"/>
<path d="M0 0 C0.66 0 1.32 0 2 0 C2.33 1.65 2.66 3.3 3 5 C3.78375 4.95875 4.5675 4.9175 5.375 4.875 C8 5 8 5 10 7 C10.1953125 9.6015625 10.1953125 9.6015625 10.125 12.625 C10.10695313 13.62789062 10.08890625 14.63078125 10.0703125 15.6640625 C10.03550781 16.82035156 10.03550781 16.82035156 10 18 C9.01 17.67 8.02 17.34 7 17 C7 14.03 7 11.06 7 8 C5.68 8 4.36 8 3 8 C2.67 11.3 2.34 14.6 2 18 C1.01 18 0.02 18 -1 18 C-1.02684312 15.18743719 -1.04676188 12.37512759 -1.0625 9.5625 C-1.07087891 8.76005859 -1.07925781 7.95761719 -1.08789062 7.13085938 C-1.0965143 5.08704779 -1.0522815 3.04316098 -1 1 C-0.67 0.67 -0.34 0.34 0 0 Z " fill="#FD3C15" transform="translate(43,12)"/>
<path d="M0 0 C1 1 1 1 1.0625 4.0625 C1.041875 5.031875 1.02125 6.00125 1 7 C-1.64 7 -4.28 7 -7 7 C-6.67 7.66 -6.34 8.32 -6 9 C-4.02 8.67 -2.04 8.34 0 8 C0 9.32 0 10.64 0 12 C-3.20959534 12.80239884 -5.25187355 13.29531307 -8.375 12.0625 C-10.54832324 9.30405128 -10.51516211 7.317829 -10.3125 3.87890625 C-10 2 -10 2 -8.9375 -0.0625 C-5.82886019 -1.56668055 -3.27444462 -0.72765436 0 0 Z M-5 1 C-5.99 2.485 -5.99 2.485 -7 4 C-5.35 4 -3.7 4 -2 4 C-2 3.34 -2 2.68 -2 2 C-2.99 1.67 -3.98 1.34 -5 1 Z " fill="#FD3B13" transform="translate(66,18)"/>
<path d="M0 0 C2.31 0 4.62 0 7 0 C7 0.99 7 1.98 7 3 C5.68 3 4.36 3 3 3 C2.67 6.3 2.34 9.6 2 13 C1.34 13 0.68 13 0 13 C-1.06671952 9.79984144 -0.94845472 8.11455706 -0.5625 4.8125 C-0.46066406 3.91144531 -0.35882813 3.01039062 -0.25390625 2.08203125 C-0.17011719 1.39496094 -0.08632812 0.70789063 0 0 Z " fill="#FE2F06" transform="translate(70,17)"/>
<path d="M0 0 C1.65 0 3.3 0 5 0 C4.67 0.99 4.34 1.98 4 3 C2.68 3.33 1.36 3.66 0 4 C-0.66 6.64 -1.32 9.28 -2 12 C-2.33 12 -2.66 12 -3 12 C-3 8.7 -3 5.4 -3 2 C-2.01 2 -1.02 2 0 2 C0 1.34 0 0.68 0 0 Z " fill="#FE4923" transform="translate(32,17)"/>
<path d="M0 0 C3.63 0 7.26 0 11 0 C10.67 0.99 10.34 1.98 10 3 C7.6739143 3.38063221 5.33944736 3.71269945 3 4 C2.67 3.67 2.34 3.34 2 3 C1.34 3.66 0.68 4.32 0 5 C0 3.35 0 1.7 0 0 Z " fill="#0C0B0A" transform="translate(106,17)"/>
<path d="M0 0 C0.66 0 1.32 0 2 0 C2 3.3 2 6.6 2 10 C1.01 9.67 0.02 9.34 -1 9 C-1.125 2.25 -1.125 2.25 0 0 Z " fill="#FE2E05" transform="translate(51,20)"/>
<path d="M0 0 C0.66 0 1.32 0 2 0 C1.6875 1.875 1.6875 1.875 1 4 C-2 6 -2 6 -5.5625 5.8125 C-9 5 -9 5 -11 2 C-8.36 2.66 -5.72 3.32 -3 4 C-2.54625 3.34 -2.0925 2.68 -1.625 2 C-1.08875 1.34 -0.5525 0.68 0 0 Z " fill="#FE3F13" transform="translate(17,25)"/>
<path d="M0 0 C0.66 0 1.32 0 2 0 C2 4.29 2 8.58 2 13 C1.34 13 0.68 13 0 13 C0 8.71 0 4.42 0 0 Z " fill="#FD3810" transform="translate(22,17)"/>
<path d="M0 0 C0.66 0.33 1.32 0.66 2 1 C1.67 1.99 1.34 2.98 1 4 C-0.98 4.33 -2.96 4.66 -5 5 C-4 2 -4 2 -2.0625 0.75 C-1.381875 0.5025 -0.70125 0.255 0 0 Z " fill="#FC3207" transform="translate(65,26)"/>
<path d="M0 0 C2.31 0 4.62 0 7 0 C7 0.99 7 1.98 7 3 C4.69 3 2.38 3 0 3 C0 2.01 0 1.02 0 0 Z " fill="#DA2807" transform="translate(70,17)"/>
<path d="M0 0 C1.98 0 3.96 0 6 0 C1.375 4 1.375 4 -2 4 C-1.34 2.68 -0.68 1.36 0 0 Z " fill="#0D0A09" transform="translate(95,17)"/>
<path d="M0 0 C1.32 0 2.64 0 4 0 C3.67 0.99 3.34 1.98 3 3 C2.01 2.67 1.02 2.34 0 2 C0 1.34 0 0.68 0 0 Z " fill="#FE2300" transform="translate(21,13)"/>
</svg>
